<?xml version="1.0" encoding="UTF-8"?>
<svg id="Capa_1" data-name="Capa 1" xmlns="http://www.w3.org/2000/svg" xmlns:xlink="http://www.w3.org/1999/xlink" viewBox="0 0 374.67 310.67">
  <defs>
    <style>
      .cls-1 {
        fill: url(#Degradado_sin_nombre_1207);
      }

      .cls-1, .cls-2, .cls-3, .cls-4 {
        stroke-width: 0px;
      }

      .cls-2 {
        fill: url(#Degradado_sin_nombre_1586);
      }

      .cls-3 {
        fill: url(#Degradado_sin_nombre_1594);
      }

      .cls-4 {
        fill: url(#Degradado_sin_nombre_1581);
      }
    </style>
    <linearGradient id="Degradado_sin_nombre_1594" data-name="Degradado sin nombre 1594" x1="157.65" y1="291.16" x2="223.43" y2="-9.88" gradientUnits="userSpaceOnUse">
      <stop offset="0" stop-color="#312783"/>
      <stop offset=".3" stop-color="#1e54a7"/>
      <stop offset=".61" stop-color="#0d7cc7"/>
      <stop offset=".85" stop-color="#0395db"/>
      <stop offset="1" stop-color="#009fe3"/>
    </linearGradient>
    <linearGradient id="Degradado_sin_nombre_1207" data-name="Degradado sin nombre 1207" x1="160.06" y1="280.14" x2="214.6" y2="30.52" gradientUnits="userSpaceOnUse">
      <stop offset="0" stop-color="#fff" stop-opacity=".3"/>
      <stop offset=".1" stop-color="#eee" stop-opacity=".5"/>
      <stop offset=".24" stop-color="#dadada" stop-opacity=".75"/>
      <stop offset=".31" stop-color="#d2d2d2" stop-opacity=".85"/>
      <stop offset=".44" stop-color="#d2d2d2" stop-opacity=".93"/>
      <stop offset=".58" stop-color="#d2d2d2" stop-opacity=".98"/>
      <stop offset=".74" stop-color="#d2d2d2"/>
      <stop offset=".98" stop-color="#fff" stop-opacity=".35"/>
    </linearGradient>
    <linearGradient id="Degradado_sin_nombre_1586" data-name="Degradado sin nombre 1586" x1="193.27" y1="71.49" x2="172.2" y2="321.79" gradientUnits="userSpaceOnUse">
      <stop offset="0" stop-color="#fff"/>
      <stop offset=".41" stop-color="#fff" stop-opacity=".65"/>
      <stop offset=".81" stop-color="#fff" stop-opacity=".33"/>
      <stop offset="1" stop-color="#fff" stop-opacity=".2"/>
    </linearGradient>
    <linearGradient id="Degradado_sin_nombre_1581" data-name="Degradado sin nombre 1581" x1="136.24" y1="189.38" x2="239.17" y2="86.44" gradientUnits="userSpaceOnUse">
      <stop offset="0" stop-color="#fff" stop-opacity=".2"/>
      <stop offset=".26" stop-color="#f0f0f0"/>
      <stop offset=".35" stop-color="#e8e8e8"/>
      <stop offset=".78" stop-color="#c8c8c8"/>
      <stop offset="1" stop-color="#fff" stop-opacity=".1"/>
    </linearGradient>
  </defs>
  <g>
    <path class="cls-3" d="M229.78,265.41H94.52c-9.53,0-17.26-7.73-17.26-17.26V112.89c0-37.35,30.28-67.63,67.63-67.63h135.26c9.53,0,17.26,7.73,17.26,17.26v135.26c0,37.35-30.28,67.63-67.63,67.63Z"/>
    <path class="cls-1" d="M280.15,46.26c8.96,0,16.26,7.29,16.26,16.26v135.26c0,36.74-29.89,66.63-66.63,66.63H94.52c-8.96,0-16.26-7.29-16.26-16.26V112.89c0-36.74,29.89-66.63,66.63-66.63h135.26M280.15,45.26h-135.26c-37.35,0-67.63,30.28-67.63,67.63v135.26c0,9.53,7.73,17.26,17.26,17.26h135.26c37.35,0,67.63-30.28,67.63-67.63V62.52c0-9.53-7.73-17.26-17.26-17.26h0Z"/>
  </g>
  <g>
    <path class="cls-2" d="M254.21,101.48s0,61.04,0,61.04c-6.06-.91-12.42.65-17.85,3.33-7.57,3.74-13.21,10.36-18.68,16.59-5.31,6.06-10.97,11.8-16.73,17.43-6.16,6.03-12.41,14.21-20.59,17.51-4.43,1.79-9.53,2.15-13.98.4-3.22-1.26-6.03-3.7-7.61-6.79-2-3.89-1.25-8.78-1.3-13.03-.12-11.81-.28-23.64-.37-35.45h-36.61c.14-1.28-.35-44.98.34-44.59,1.18-5.37,6.38-12.04,11.62-14.4,2.35-.99,4.92-1.54,7.62-1.54,0,0,24.58,0,24.58,0v46.6c0,2.56-.77,7.49.9,9.62.62.8,1.6,1.33,2.61,1.32,1.1,0,2.11-.62,2.97-1.3,4.44-3.51,7.64-9.27,10.87-13.88,3.63-5.17,7.19-10.39,11.06-15.38,12.96-16.73,31.98-30.63,54.13-28.77,0,0,5.94,1.1,6.99,1.29Z"/>
    <path class="cls-4" d="M243.24,100.03v1h0c1.27,0,2.57.05,3.84.16.48.09,4.29.79,6.13,1.13,0,6.68,0,51.36,0,59.08-.84-.09-1.7-.13-2.56-.13-4.74,0-9.83,1.28-14.73,3.7-7.48,3.69-13.03,10.03-18.4,16.16l-.59.67c-4.56,5.2-9.7,10.56-16.67,17.37-1.43,1.4-2.83,2.87-4.31,4.44-4.85,5.11-9.86,10.4-15.95,12.86-2.37.96-4.92,1.47-7.36,1.47-2.09,0-4.06-.36-5.87-1.07-3.06-1.2-5.65-3.51-7.09-6.32-1.44-2.81-1.34-6.29-1.24-9.66.03-.97.06-1.97.05-2.92-.04-4.11-.09-8.22-.14-12.32-.09-7.58-.18-15.42-.24-23.12,0-.55-.45-.99-1-.99h-35.59c.01-1.51,0-4.64-.02-10.16-.04-10.78-.12-30.66.22-32.96.04-.08.08-.17.1-.26,1.15-5.25,6.21-11.52,11.04-13.69,2.3-.97,4.73-1.46,7.24-1.46h23.58v45.6c0,.53-.04,1.2-.08,1.91-.15,2.83-.35,6.36,1.19,8.32.84,1.07,2.1,1.71,3.41,1.71,1.51,0,2.77-.87,3.59-1.52,3.56-2.82,6.27-6.91,8.89-10.86.75-1.13,1.46-2.2,2.18-3.23.62-.89,1.24-1.78,1.86-2.66,2.94-4.21,5.98-8.56,9.17-12.68,8.26-10.66,25.66-28.55,49.36-28.55v-1M121.74,118.28h0,0M243.24,100.03c-20.45,0-37.98,13.22-50.16,28.94-3.87,4.99-7.43,10.21-11.06,15.38-3.23,4.61-6.43,10.37-10.87,13.88-.86.68-1.87,1.29-2.97,1.3,0,0-.01,0-.02,0-1.01,0-1.98-.53-2.6-1.32-1.67-2.13-.9-7.05-.9-9.62v-46.6h-24.58c-2.7,0-5.27.55-7.62,1.54-5.24,2.35-10.45,9.03-11.62,14.4,0,0,0,0,0,0-.68,0-.19,43.32-.33,44.59h36.61c.09,11.81.25,23.63.37,35.45.04,4.25-.7,9.13,1.3,13.03,1.59,3.09,4.39,5.53,7.61,6.79,1.99.78,4.11,1.14,6.24,1.14,2.64,0,5.29-.55,7.74-1.54,8.17-3.3,14.42-11.48,20.59-17.51,5.76-5.63,11.41-11.37,16.73-17.43,5.47-6.23,11.11-12.86,18.68-16.59,4.38-2.16,9.35-3.59,14.29-3.59,1.19,0,2.38.08,3.56.26,0,0,0-61.04,0-61.04-1.05-.19-6.99-1.29-6.99-1.29-1.34-.11-2.66-.17-3.98-.17h0Z"/>
  </g>
</svg>