<?xml version="1.0" encoding="UTF-8"?>
<svg id="Capa_1" data-name="Capa 1" xmlns="http://www.w3.org/2000/svg" xmlns:xlink="http://www.w3.org/1999/xlink" viewBox="0 0 500 141.33">
  <defs>
    <style>
      .cls-1 {
        fill: url(#Degradado_sin_nombre_1658-3);
      }

      .cls-1, .cls-2, .cls-3, .cls-4, .cls-5, .cls-6, .cls-7, .cls-8, .cls-9, .cls-10, .cls-11, .cls-12, .cls-13, .cls-14, .cls-15 {
        stroke-width: 0px;
      }

      .cls-2 {
        fill: url(#Degradado_sin_nombre_1658-8);
      }

      .cls-3 {
        fill: url(#Degradado_sin_nombre_1658-4);
      }

      .cls-4 {
        fill: url(#Degradado_sin_nombre_1658-5);
      }

      .cls-5 {
        fill: url(#Degradado_sin_nombre_1207);
      }

      .cls-6 {
        fill: url(#Degradado_sin_nombre_1658-10);
      }

      .cls-7 {
        fill: url(#Degradado_sin_nombre_1658-6);
      }

      .cls-8 {
        fill: url(#Degradado_sin_nombre_1586);
      }

      .cls-9 {
        fill: url(#Degradado_sin_nombre_1658-9);
      }

      .cls-10 {
        fill: url(#Degradado_sin_nombre_1594);
      }

      .cls-11 {
        fill: url(#Degradado_sin_nombre_1658);
      }

      .cls-12 {
        fill: url(#Degradado_sin_nombre_1658-7);
      }

      .cls-13 {
        fill: url(#Degradado_sin_nombre_1581);
      }

      .cls-14 {
        fill: url(#Degradado_sin_nombre_1658-11);
      }

      .cls-15 {
        fill: url(#Degradado_sin_nombre_1658-2);
      }
    </style>
    <linearGradient id="Degradado_sin_nombre_1594" data-name="Degradado sin nombre 1594" x1="67.71" y1="116.67" x2="90.64" y2="11.75" gradientUnits="userSpaceOnUse">
      <stop offset="0" stop-color="#312783"/>
      <stop offset=".3" stop-color="#1e54a7"/>
      <stop offset=".61" stop-color="#0d7cc7"/>
      <stop offset=".85" stop-color="#0395db"/>
      <stop offset="1" stop-color="#009fe3"/>
    </linearGradient>
    <linearGradient id="Degradado_sin_nombre_1207" data-name="Degradado sin nombre 1207" x1="68.55" y1="112.83" x2="87.56" y2="25.83" gradientUnits="userSpaceOnUse">
      <stop offset="0" stop-color="#fff" stop-opacity=".3"/>
      <stop offset=".1" stop-color="#eee" stop-opacity=".5"/>
      <stop offset=".24" stop-color="#dadada" stop-opacity=".75"/>
      <stop offset=".31" stop-color="#d2d2d2" stop-opacity=".85"/>
      <stop offset=".44" stop-color="#d2d2d2" stop-opacity=".93"/>
      <stop offset=".58" stop-color="#d2d2d2" stop-opacity=".98"/>
      <stop offset=".74" stop-color="#d2d2d2"/>
      <stop offset=".98" stop-color="#fff" stop-opacity=".35"/>
    </linearGradient>
    <linearGradient id="Degradado_sin_nombre_1586" data-name="Degradado sin nombre 1586" x1="80.13" y1="40.11" x2="72.78" y2="127.35" gradientUnits="userSpaceOnUse">
      <stop offset="0" stop-color="#fff"/>
      <stop offset=".41" stop-color="#fff" stop-opacity=".65"/>
      <stop offset=".81" stop-color="#fff" stop-opacity=".33"/>
      <stop offset="1" stop-color="#fff" stop-opacity=".2"/>
    </linearGradient>
    <linearGradient id="Degradado_sin_nombre_1581" data-name="Degradado sin nombre 1581" x1="60.25" y1="81.2" x2="96.13" y2="45.32" gradientUnits="userSpaceOnUse">
      <stop offset="0" stop-color="#fff" stop-opacity=".2"/>
      <stop offset=".26" stop-color="#f0f0f0"/>
      <stop offset=".35" stop-color="#e8e8e8"/>
      <stop offset=".78" stop-color="#c8c8c8"/>
      <stop offset="1" stop-color="#fff" stop-opacity=".1"/>
    </linearGradient>
    <linearGradient id="Degradado_sin_nombre_1658" data-name="Degradado sin nombre 1658" x1="157.35" y1="-31.42" x2="155.83" y2="120.51" gradientUnits="userSpaceOnUse">
      <stop offset="0" stop-color="#1d1d1b"/>
      <stop offset=".38" stop-color="#1e1e1c"/>
      <stop offset=".52" stop-color="#252523"/>
      <stop offset=".62" stop-color="#31312f"/>
      <stop offset=".7" stop-color="#424240"/>
      <stop offset=".76" stop-color="#575756"/>
      <stop offset=".82" stop-color="#727271"/>
      <stop offset=".88" stop-color="#939392"/>
      <stop offset=".93" stop-color="#b8b8b7"/>
      <stop offset=".97" stop-color="#e1e1e0"/>
      <stop offset="1" stop-color="#fff"/>
    </linearGradient>
    <linearGradient id="Degradado_sin_nombre_1658-2" data-name="Degradado sin nombre 1658" x1="193.71" y1="-31.05" x2="192.19" y2="120.88" xlink:href="#Degradado_sin_nombre_1658"/>
    <linearGradient id="Degradado_sin_nombre_1658-3" data-name="Degradado sin nombre 1658" x1="229.03" y1="-30.7" x2="227.5" y2="121.23" xlink:href="#Degradado_sin_nombre_1658"/>
    <linearGradient id="Degradado_sin_nombre_1658-4" data-name="Degradado sin nombre 1658" x1="262.93" y1="-30.36" x2="261.41" y2="121.57" xlink:href="#Degradado_sin_nombre_1658"/>
    <linearGradient id="Degradado_sin_nombre_1658-5" data-name="Degradado sin nombre 1658" x1="290.88" y1="-30.08" x2="289.36" y2="121.85" xlink:href="#Degradado_sin_nombre_1658"/>
    <linearGradient id="Degradado_sin_nombre_1658-6" data-name="Degradado sin nombre 1658" x1="309.07" y1="-29.9" x2="307.54" y2="122.04" xlink:href="#Degradado_sin_nombre_1658"/>
    <linearGradient id="Degradado_sin_nombre_1658-7" data-name="Degradado sin nombre 1658" x1="335.05" y1="-29.63" x2="333.52" y2="122.3" xlink:href="#Degradado_sin_nombre_1658"/>
    <linearGradient id="Degradado_sin_nombre_1658-8" data-name="Degradado sin nombre 1658" x1="371.14" y1="-29.27" x2="369.61" y2="122.66" xlink:href="#Degradado_sin_nombre_1658"/>
    <linearGradient id="Degradado_sin_nombre_1658-9" data-name="Degradado sin nombre 1658" x1="396.73" y1="-29.02" x2="395.2" y2="122.92" xlink:href="#Degradado_sin_nombre_1658"/>
    <linearGradient id="Degradado_sin_nombre_1658-10" data-name="Degradado sin nombre 1658" x1="415.91" y1="-28.82" x2="414.39" y2="123.11" xlink:href="#Degradado_sin_nombre_1658"/>
    <linearGradient id="Degradado_sin_nombre_1658-11" data-name="Degradado sin nombre 1658" x1="444.92" y1="-28.53" x2="443.39" y2="123.4" xlink:href="#Degradado_sin_nombre_1658"/>
  </defs>
  <g>
    <g>
      <path class="cls-10" d="M92.85,107.7h-47.14c-3.32,0-6.01-2.69-6.01-6.01v-47.14c0-13.02,10.55-23.57,23.57-23.57h47.14c3.32,0,6.01,2.69,6.01,6.01v47.14c0,13.02-10.55,23.57-23.57,23.57Z"/>
      <path class="cls-5" d="M110.41,31.32c3.12,0,5.67,2.54,5.67,5.67v47.14c0,12.81-10.42,23.22-23.22,23.22h-47.14c-3.12,0-5.67-2.54-5.67-5.67v-47.14c0-12.81,10.42-23.22,23.22-23.22h47.14M110.41,30.97h-47.14c-13.02,0-23.57,10.55-23.57,23.57v47.14c0,3.32,2.69,6.01,6.01,6.01h47.14c13.02,0,23.57-10.55,23.57-23.57v-47.14c0-3.32-2.69-6.01-6.01-6.01h0Z"/>
    </g>
    <g>
      <path class="cls-8" d="M101.37,50.56s0,21.28,0,21.28c-2.11-.32-4.33.23-6.22,1.16-2.64,1.3-4.6,3.61-6.51,5.78-1.85,2.11-3.82,4.11-5.83,6.08-2.15,2.1-4.33,4.95-7.17,6.1-1.54.62-3.32.75-4.87.14-1.12-.44-2.1-1.29-2.65-2.37-.7-1.36-.44-3.06-.45-4.54-.04-4.12-.1-8.24-.13-12.35h-12.76c.05-.44-.12-15.68.12-15.54.41-1.87,2.23-4.2,4.05-5.02.82-.35,1.72-.54,2.66-.54,0,0,8.57,0,8.57,0v16.24c0,.89-.27,2.61.31,3.35.22.28.56.46.91.46.38,0,.74-.21,1.04-.45,1.55-1.22,2.66-3.23,3.79-4.84,1.26-1.8,2.51-3.62,3.85-5.36,4.52-5.83,11.15-10.67,18.87-10.03,0,0,2.07.38,2.44.45Z"/>
      <path class="cls-13" d="M97.54,50.06v.35c.45,0,.91.02,1.32.05,0,0,1.47.27,2.15.4,0,2.33,0,17.9,0,20.59-.29-.03-.59-.04-.89-.04-1.65,0-3.43.45-5.13,1.29-2.61,1.29-4.54,3.5-6.41,5.63l-.2.23c-1.59,1.81-3.38,3.68-5.81,6.06-.5.49-.99,1-1.5,1.55-1.69,1.78-3.44,3.62-5.56,4.48-.83.33-1.71.51-2.57.51-.73,0-1.42-.13-2.05-.37-1.07-.42-1.97-1.22-2.47-2.2-.5-.98-.47-2.19-.43-3.37.01-.35.02-.69.02-1.02l-.05-4.29c-.03-2.69-.06-5.38-.08-8.06,0-.19-.16-.35-.35-.35h-12.41c0-.53,0-1.62,0-3.54-.02-3.76-.04-10.68.08-11.49.02-.03.03-.06.03-.09.4-1.83,2.17-4.02,3.85-4.77.8-.34,1.65-.51,2.52-.51h8.22v15.89c0,.19-.01.42-.03.67-.05.99-.12,2.22.41,2.9.29.37.73.59,1.19.59.53,0,.97-.3,1.25-.53,1.24-.98,2.19-2.41,3.1-3.79.26-.39.51-.77.76-1.13l.65-.93c1.02-1.47,2.08-2.98,3.19-4.42,2.88-3.72,8.94-9.95,17.21-9.95v-.35M97.54,50.06c-7.13,0-13.24,4.61-17.48,10.09-1.35,1.74-2.59,3.56-3.85,5.36-1.13,1.61-2.24,3.61-3.79,4.84-.3.24-.65.45-1.04.45h0c-.35,0-.69-.18-.91-.46-.58-.74-.31-2.46-.31-3.35v-16.24h-8.57c-.94,0-1.84.19-2.66.54-1.83.82-3.64,3.15-4.05,5.02,0,0,0,0,0,0-.24,0-.07,15.1-.12,15.54h12.76c.03,4.11.09,8.24.13,12.35.01,1.48-.25,3.18.45,4.54.55,1.08,1.53,1.93,2.65,2.37.69.27,1.43.4,2.17.4.92,0,1.84-.19,2.7-.54,2.85-1.15,5.03-4,7.17-6.1,2.01-1.96,3.98-3.96,5.83-6.08,1.91-2.17,3.87-4.48,6.51-5.78,1.53-.75,3.26-1.25,4.98-1.25.42,0,.83.03,1.24.09,0,0,0-21.28,0-21.28-.37-.07-2.44-.45-2.44-.45-.47-.04-.93-.06-1.39-.06h0Z"/>
    </g>
  </g>
  <g>
    <path class="cls-11" d="M151.8,91.5l-15.33-43.03h8.46l7.62,22.35c.71,2.23,1.48,4.81,2.31,7.72s1.72,6.21,2.69,9.89h-1.62c.96-3.73,1.84-7.05,2.64-9.93.8-2.89,1.54-5.45,2.24-7.68l7.39-22.35h8.43l-15.07,43.03h-9.76Z"/>
    <path class="cls-15" d="M192.63,92.16c-3.14,0-5.86-.7-8.17-2.09-2.31-1.4-4.09-3.34-5.36-5.83-1.26-2.49-1.89-5.39-1.89-8.71s.63-6.28,1.89-8.79,3.05-4.46,5.36-5.85c2.31-1.39,5.03-2.08,8.17-2.08s5.89.69,8.2,2.08c2.31,1.39,4.1,3.34,5.36,5.85,1.26,2.51,1.89,5.44,1.89,8.79s-.63,6.21-1.89,8.71c-1.26,2.49-3.05,4.44-5.36,5.83-2.31,1.4-5.04,2.09-8.2,2.09ZM192.63,86.07c1.75,0,3.21-.47,4.37-1.42,1.16-.94,2.03-2.21,2.6-3.81.57-1.6.85-3.38.85-5.34s-.28-3.77-.85-5.37c-.57-1.6-1.44-2.87-2.6-3.81-1.17-.94-2.62-1.42-4.37-1.42s-3.2.47-4.35,1.42c-1.15.94-2,2.21-2.57,3.8-.57,1.59-.85,3.38-.85,5.39s.28,3.74.85,5.34c.57,1.6,1.43,2.87,2.57,3.81,1.15.94,2.59,1.42,4.35,1.42Z"/>
    <path class="cls-1" d="M228.64,92.16c-3.14,0-5.86-.7-8.17-2.09-2.31-1.4-4.09-3.34-5.36-5.83-1.26-2.49-1.89-5.39-1.89-8.71s.63-6.28,1.89-8.79,3.05-4.46,5.36-5.85c2.31-1.39,5.03-2.08,8.17-2.08,1.79,0,3.45.23,5,.69,1.54.46,2.92,1.13,4.13,2.01s2.23,1.94,3.05,3.19c.82,1.25,1.4,2.67,1.75,4.24l-7.02,1.47c-.21-.83-.52-1.58-.91-2.27-.39-.68-.88-1.27-1.46-1.75-.58-.48-1.24-.85-1.99-1.11s-1.58-.39-2.48-.39c-1.75,0-3.21.47-4.36,1.4-1.16.93-2.02,2.19-2.6,3.78-.58,1.59-.87,3.39-.87,5.41s.29,3.77.87,5.37c.58,1.6,1.44,2.86,2.6,3.8,1.15.93,2.61,1.4,4.36,1.4.92,0,1.77-.13,2.53-.4.76-.27,1.43-.65,2.02-1.15.59-.5,1.08-1.11,1.49-1.82.4-.71.7-1.5.89-2.37l7.02,1.47c-.35,1.62-.93,3.06-1.75,4.33-.82,1.27-1.84,2.35-3.06,3.25-1.22.9-2.61,1.58-4.16,2.06-1.55.48-3.23.72-5.04.72Z"/>
    <path class="cls-3" d="M258.67,92.16c-2.04,0-3.88-.37-5.51-1.11-1.64-.74-2.93-1.83-3.87-3.28-.94-1.44-1.42-3.22-1.42-5.34,0-1.83.34-3.34,1.02-4.53.68-1.19,1.61-2.15,2.77-2.86,1.16-.71,2.48-1.25,3.94-1.62,1.46-.37,2.98-.63,4.56-.78,1.87-.21,3.39-.39,4.56-.55,1.17-.15,2.03-.4,2.58-.75.55-.35.82-.89.82-1.62v-.14c0-1.06-.21-1.96-.63-2.7s-1.05-1.31-1.89-1.7-1.87-.59-3.1-.59-2.33.19-3.25.58-1.66.89-2.24,1.5-1,1.28-1.27,1.99l-6.96-1.41c.63-1.91,1.62-3.48,2.95-4.72,1.33-1.24,2.91-2.17,4.75-2.79,1.84-.62,3.84-.92,5.99-.92,1.52,0,3.05.18,4.61.53,1.55.36,2.97.96,4.26,1.81,1.29.85,2.33,1.98,3.12,3.41.79,1.42,1.18,3.21,1.18,5.37v21.57h-7.19v-4.45h-.29c-.48.91-1.14,1.75-1.98,2.53-.84.78-1.88,1.41-3.12,1.88-1.24.47-2.71.71-4.4.71ZM260.6,86.59c1.56,0,2.9-.31,4.03-.92,1.13-.62,2-1.43,2.63-2.44.63-1.01.94-2.11.94-3.31v-3.81c-.25.19-.67.38-1.26.55-.59.17-1.24.33-1.96.46-.72.13-1.43.25-2.14.35-.7.1-1.29.17-1.78.23-1.12.15-2.13.4-3.03.75-.91.35-1.61.83-2.12,1.46-.51.63-.77,1.44-.77,2.44,0,.92.24,1.7.71,2.32.47.63,1.12,1.1,1.93,1.43.82.33,1.76.49,2.82.49Z"/>
    <path class="cls-4" d="M299.44,91.24c-.82.26-1.68.43-2.54.53-.87.1-1.7.17-2.49.17-3.1,0-5.47-.77-7.13-2.32-1.65-1.54-2.49-3.74-2.49-6.59v-17.94h-4.58v-5.88h4.58v-7.68h7.51v7.68h6.24v5.88h-6.24v17.3c0,1.17.26,2.04.75,2.59.5.55,1.32.82,2.45.82.34,0,.81-.05,1.37-.14.57-.09,1.03-.17,1.37-.24l1.18,5.8Z"/>
    <path class="cls-7" d="M308.25,54.65c-1.19,0-2.22-.4-3.07-1.21-.86-.81-1.29-1.77-1.29-2.89s.43-2.13,1.29-2.93c.86-.8,1.88-1.2,3.07-1.2s2.25.4,3.1,1.2c.86.8,1.29,1.77,1.29,2.9s-.43,2.11-1.29,2.92c-.86.81-1.89,1.21-3.1,1.21ZM304.49,91.5v-32.28h7.51v32.28h-7.51Z"/>
    <path class="cls-12" d="M333.98,92.16c-3.14,0-5.86-.7-8.17-2.09-2.31-1.4-4.09-3.34-5.36-5.83-1.26-2.49-1.89-5.39-1.89-8.71s.63-6.28,1.89-8.79,3.05-4.46,5.36-5.85c2.31-1.39,5.03-2.08,8.17-2.08s5.89.69,8.2,2.08c2.31,1.39,4.1,3.34,5.36,5.85,1.26,2.51,1.89,5.44,1.89,8.79s-.63,6.21-1.89,8.71c-1.26,2.49-3.05,4.44-5.36,5.83-2.31,1.4-5.04,2.09-8.2,2.09ZM333.98,86.07c1.75,0,3.21-.47,4.37-1.42,1.16-.94,2.03-2.21,2.6-3.81.57-1.6.85-3.38.85-5.34s-.28-3.77-.85-5.37c-.57-1.6-1.44-2.87-2.6-3.81-1.17-.94-2.62-1.42-4.37-1.42s-3.2.47-4.35,1.42c-1.15.94-2,2.21-2.57,3.8-.57,1.59-.85,3.38-.85,5.39s.28,3.74.85,5.34c.57,1.6,1.43,2.87,2.57,3.81,1.15.94,2.59,1.42,4.35,1.42Z"/>
    <path class="cls-2" d="M363.49,72.59v18.91h-7.51v-32.28h7.1l.12,7.97h-.61c.9-2.79,2.23-4.88,3.98-6.28,1.75-1.4,3.95-2.09,6.58-2.09,2.21,0,4.15.47,5.8,1.42,1.65.94,2.94,2.32,3.86,4.13.91,1.81,1.37,4.01,1.37,6.61v20.53h-7.51v-19.38c0-2.16-.56-3.85-1.67-5.08-1.12-1.23-2.66-1.85-4.62-1.85-1.33,0-2.51.29-3.55.87-1.04.58-1.86,1.42-2.45,2.53-.6,1.11-.9,2.44-.9,4Z"/>
    <path class="cls-9" d="M395.91,54.65c-1.19,0-2.22-.4-3.07-1.21-.86-.81-1.29-1.77-1.29-2.89s.43-2.13,1.29-2.93c.86-.8,1.88-1.2,3.07-1.2s2.25.4,3.1,1.2c.86.8,1.29,1.77,1.29,2.9s-.43,2.11-1.29,2.92c-.86.81-1.89,1.21-3.1,1.21ZM392.16,91.5v-32.28h7.51v32.28h-7.51Z"/>
    <path class="cls-6" d="M424.62,59.22v5.89h-20.39v-5.89h20.39ZM410.15,91.5v-35.37c0-2.16.45-3.95,1.34-5.37.9-1.42,2.11-2.5,3.64-3.22,1.53-.72,3.21-1.08,5.04-1.08,1.33,0,2.5.11,3.52.32,1.02.21,1.77.4,2.25.58l-1.53,5.83c-.33-.1-.73-.2-1.2-.3-.47-.11-1.02-.16-1.66-.16-1.41,0-2.41.35-3.02,1.04-.61.69-.91,1.67-.91,2.95v34.8h-7.48Z"/>
    <path class="cls-14" d="M430.31,103.02l1.76-5.86.9.23c1.14.29,2.15.37,3.03.25.89-.13,1.63-.51,2.22-1.16.6-.64,1.02-1.58,1.27-2.82l.46-2.05-12.19-32.4h8.03l5.89,17.56c.69,2.08,1.26,4.15,1.7,6.21.44,2.06.93,4.17,1.47,6.32h-1.96c.52-2.16,1.04-4.27,1.56-6.34.52-2.07,1.13-4.13,1.82-6.19l6.09-17.56h7.94l-13.86,36.44c-.65,1.71-1.47,3.18-2.46,4.4-.98,1.22-2.18,2.15-3.61,2.79-1.43.64-3.11.95-5.05.95-1.06,0-2.04-.08-2.93-.23-.9-.15-1.59-.34-2.09-.55Z"/>
  </g>
</svg>